<?xml version="1.0" encoding="UTF-8" standalone="no"?><svg xmlns="http://www.w3.org/2000/svg" xmlns:xlink="http://www.w3.org/1999/xlink" contentScriptType="application/ecmascript" contentStyleType="text/css" height="579px" preserveAspectRatio="none" style="width:835px;height:579px;" version="1.1" viewBox="0 0 835 579" width="835px" zoomAndPan="magnify"><defs><filter height="300%" id="frcolb73u31ww" width="300%" x="-1" y="-1"><feGaussianBlur result="blurOut" stdDeviation="2.0"/><feColorMatrix in="blurOut" result="blurOut2" type="matrix" values="0 0 0 0 0 0 0 0 0 0 0 0 0 0 0 0 0 0 .4 0"/><feOffset dx="4.0" dy="4.0" in="blurOut2" result="blurOut3"/><feBlend in="SourceGraphic" in2="blurOut3" mode="normal"/></filter></defs><g><text fill="#000000" font-family="sans-serif" font-size="18" lengthAdjust="spacingAndGlyphs" textLength="311" x="273" y="16.708">Laboratorios - Diagrama de Classes</text><!--MD5=[3921fea2615a66fe84ca46b00080c1f8]
cluster br.ucsal.lamis.model--><polygon fill="#FFFFFF" filter="url(#frcolb73u31ww)" points="22,56.9531,189,56.9531,196,79.25,521,79.25,521,567.9531,22,567.9531,22,56.9531" style="stroke: #000000; stroke-width: 1.5;"/><line style="stroke: #000000; stroke-width: 1.5;" x1="22" x2="196" y1="79.25" y2="79.25"/><text fill="#000000" font-family="sans-serif" font-size="14" font-weight="bold" lengthAdjust="spacingAndGlyphs" textLength="161" x="26" y="71.9482">br.ucsal.lamis.model</text><text fill="#000000" font-family="sans-serif" font-size="14" font-style="italic" lengthAdjust="spacingAndGlyphs" textLength="60" x="245.5" y="94.2451">«Model»</text><!--MD5=[815249f79c2c08157ac02b3106e03757]
cluster Database--><path d="M545,54.9531 C545,44.9531 684,44.9531 684,44.9531 C684,44.9531 823,44.9531 823,54.9531 L823,302.9531 C823,312.9531 684,312.9531 684,312.9531 C684,312.9531 545,312.9531 545,302.9531 L545,54.9531 " fill="#FFFFFF" filter="url(#frcolb73u31ww)" style="stroke: #000000; stroke-width: 1.5;"/><path d="M545,54.9531 C545,64.9531 684,64.9531 684,64.9531 C684,64.9531 823,64.9531 823,54.9531 " fill="none" style="stroke: #000000; stroke-width: 1.5;"/><text fill="#000000" font-family="sans-serif" font-size="14" font-weight="bold" lengthAdjust="spacingAndGlyphs" textLength="73" x="647.5" y="79.9482">Database</text><!--MD5=[6ea9d6598d9760662639554c9857ab6b]
class Reserva--><rect fill="#FEFECE" filter="url(#frcolb73u31ww)" height="176.0469" id="Reserva" style="stroke: #A80036; stroke-width: 1.5;" width="161" x="305.5" y="375.9531"/><ellipse cx="356.75" cy="391.9531" fill="#ADD1B2" rx="11" ry="11" style="stroke: #A80036; stroke-width: 1.0;"/><path d="M359.0938,387.625 L359.2656,387.7031 C359.4844,387.3906 359.6875,387.2969 359.9844,387.2969 C360.2813,387.2969 360.5625,387.4375 360.7188,387.7031 C360.8125,387.8594 360.8281,387.9844 360.8281,388.4219 L360.8281,389.8438 C360.8281,390.2656 360.7969,390.4531 360.6875,390.6094 C360.5156,390.8281 360.25,390.9688 359.9844,390.9688 C359.7656,390.9688 359.5313,390.8594 359.3906,390.7188 C359.25,390.5938 359.2188,390.4688 359.1563,390.0625 C359.0625,389.6563 358.8906,389.4375 358.4063,389.1563 C357.9375,388.9063 357.3281,388.75 356.75,388.75 C355.0156,388.75 353.7656,390.0625 353.7656,391.8438 L353.7656,392.9375 C353.7656,394.6406 355.0625,395.7344 357.1094,395.7344 C357.875,395.7344 358.5625,395.6094 358.9844,395.3438 C359.1719,395.25 359.1719,395.25 359.625,394.7656 C359.8125,394.5781 360.0156,394.5 360.2344,394.5 C360.7031,394.5 361.0938,394.8906 361.0938,395.3438 C361.0938,395.7344 360.7656,396.1875 360.1875,396.5938 C359.4375,397.1406 358.2813,397.4375 357.0625,397.4375 C354.1719,397.4375 352.0625,395.5469 352.0625,392.9688 L352.0625,391.8438 C352.0625,389.125 354.0625,387.0469 356.6875,387.0469 C357.5625,387.0469 358.1563,387.1875 359.0938,387.625 Z "/><text fill="#000000" font-family="sans-serif" font-size="12" lengthAdjust="spacingAndGlyphs" textLength="50" x="377.25" y="396.1074">Reserva</text><line style="stroke: #A80036; stroke-width: 1.5;" x1="306.5" x2="465.5" y1="407.9531" y2="407.9531"/><rect fill="none" height="6" style="stroke: #C82930; stroke-width: 1.0;" width="6" x="313.5" y="415.9531"/><text fill="#000000" font-family="sans-serif" font-size="11" lengthAdjust="spacingAndGlyphs" textLength="58" x="325.5" y="422.1636">id: Integer</text><rect fill="none" height="6" style="stroke: #C82930; stroke-width: 1.0;" width="6" x="313.5" y="428.7578"/><text fill="#000000" font-family="sans-serif" font-size="11" lengthAdjust="spacingAndGlyphs" textLength="86" x="325.5" y="434.9683">objetivo: String</text><rect fill="none" height="6" style="stroke: #C82930; stroke-width: 1.0;" width="6" x="313.5" y="441.5625"/><text fill="#000000" font-family="sans-serif" font-size="11" lengthAdjust="spacingAndGlyphs" textLength="97" x="325.5" y="447.7729">descricao: String</text><rect fill="none" height="6" style="stroke: #C82930; stroke-width: 1.0;" width="6" x="313.5" y="454.3672"/><text fill="#000000" font-family="sans-serif" font-size="11" lengthAdjust="spacingAndGlyphs" textLength="88" x="325.5" y="460.5776">data: LocalDate</text><rect fill="none" height="6" style="stroke: #C82930; stroke-width: 1.0;" width="6" x="313.5" y="467.1719"/><text fill="#000000" font-family="sans-serif" font-size="11" lengthAdjust="spacingAndGlyphs" textLength="120" x="325.5" y="473.3823">horaInicio: LocalTime</text><rect fill="none" height="6" style="stroke: #C82930; stroke-width: 1.0;" width="6" x="313.5" y="479.9766"/><text fill="#000000" font-family="sans-serif" font-size="11" lengthAdjust="spacingAndGlyphs" textLength="111" x="325.5" y="486.187">horaFim: LocalTIme</text><rect fill="none" height="6" style="stroke: #C82930; stroke-width: 1.0;" width="6" x="313.5" y="492.7813"/><text fill="#000000" font-family="sans-serif" font-size="11" lengthAdjust="spacingAndGlyphs" textLength="135" x="325.5" y="498.9917">laboratorio: Laboratorio</text><rect fill="none" height="6" style="stroke: #C82930; stroke-width: 1.0;" width="6" x="313.5" y="505.5859"/><text fill="#000000" font-family="sans-serif" font-size="11" lengthAdjust="spacingAndGlyphs" textLength="95" x="325.5" y="511.7964">usuario: Usuario</text><line style="stroke: #A80036; stroke-width: 1.5;" x1="306.5" x2="465.5" y1="518.3906" y2="518.3906"/><ellipse cx="316.5" cy="529.3906" fill="#84BE84" rx="3" ry="3" style="stroke: #038048; stroke-width: 1.0;"/><text fill="#000000" font-family="sans-serif" font-size="11" lengthAdjust="spacingAndGlyphs" textLength="84" x="325.5" y="532.6011">getId(): Integer</text><ellipse cx="316.5" cy="542.1953" fill="#84BE84" rx="3" ry="3" style="stroke: #038048; stroke-width: 1.0;"/><text fill="#000000" font-family="sans-serif" font-size="11" lengthAdjust="spacingAndGlyphs" textLength="125" x="325.5" y="545.4058">setId(id: Integer): void</text><!--MD5=[35a64b983c79880384a2fd9b61f0c24b]
class Usuario--><rect fill="#FEFECE" filter="url(#frcolb73u31ww)" height="163.2422" id="Usuario" style="stroke: #A80036; stroke-width: 1.5;" width="196" x="309" y="114.4531"/><ellipse cx="378.75" cy="130.4531" fill="#ADD1B2" rx="11" ry="11" style="stroke: #A80036; stroke-width: 1.0;"/><path d="M381.0938,126.125 L381.2656,126.2031 C381.4844,125.8906 381.6875,125.7969 381.9844,125.7969 C382.2813,125.7969 382.5625,125.9375 382.7188,126.2031 C382.8125,126.3594 382.8281,126.4844 382.8281,126.9219 L382.8281,128.3438 C382.8281,128.7656 382.7969,128.9531 382.6875,129.1094 C382.5156,129.3281 382.25,129.4688 381.9844,129.4688 C381.7656,129.4688 381.5313,129.3594 381.3906,129.2188 C381.25,129.0938 381.2188,128.9688 381.1563,128.5625 C381.0625,128.1563 380.8906,127.9375 380.4063,127.6563 C379.9375,127.4063 379.3281,127.25 378.75,127.25 C377.0156,127.25 375.7656,128.5625 375.7656,130.3438 L375.7656,131.4375 C375.7656,133.1406 377.0625,134.2344 379.1094,134.2344 C379.875,134.2344 380.5625,134.1094 380.9844,133.8438 C381.1719,133.75 381.1719,133.75 381.625,133.2656 C381.8125,133.0781 382.0156,133 382.2344,133 C382.7031,133 383.0938,133.3906 383.0938,133.8438 C383.0938,134.2344 382.7656,134.6875 382.1875,135.0938 C381.4375,135.6406 380.2813,135.9375 379.0625,135.9375 C376.1719,135.9375 374.0625,134.0469 374.0625,131.4688 L374.0625,130.3438 C374.0625,127.625 376.0625,125.5469 378.6875,125.5469 C379.5625,125.5469 380.1563,125.6875 381.0938,126.125 Z "/><text fill="#000000" font-family="sans-serif" font-size="12" lengthAdjust="spacingAndGlyphs" textLength="48" x="399.25" y="134.6074">Usuario</text><line style="stroke: #A80036; stroke-width: 1.5;" x1="310" x2="504" y1="146.4531" y2="146.4531"/><rect fill="none" height="6" style="stroke: #C82930; stroke-width: 1.0;" width="6" x="317" y="154.4531"/><text fill="#000000" font-family="sans-serif" font-size="11" lengthAdjust="spacingAndGlyphs" textLength="58" x="329" y="160.6636">id: Integer</text><rect fill="none" height="6" style="stroke: #C82930; stroke-width: 1.0;" width="6" x="317" y="167.2578"/><text fill="#000000" font-family="sans-serif" font-size="11" lengthAdjust="spacingAndGlyphs" textLength="69" x="329" y="173.4683">login: String</text><rect fill="none" height="6" style="stroke: #C82930; stroke-width: 1.0;" width="6" x="317" y="180.0625"/><text fill="#000000" font-family="sans-serif" font-size="11" lengthAdjust="spacingAndGlyphs" textLength="77" x="329" y="186.2729">senha: String</text><line style="stroke: #A80036; stroke-width: 1.5;" x1="310" x2="504" y1="192.8672" y2="192.8672"/><ellipse cx="320" cy="203.8672" fill="#84BE84" rx="3" ry="3" style="stroke: #038048; stroke-width: 1.0;"/><text fill="#000000" font-family="sans-serif" font-size="11" lengthAdjust="spacingAndGlyphs" textLength="84" x="329" y="207.0776">getId(): Integer</text><ellipse cx="320" cy="216.6719" fill="#84BE84" rx="3" ry="3" style="stroke: #038048; stroke-width: 1.0;"/><text fill="#000000" font-family="sans-serif" font-size="11" lengthAdjust="spacingAndGlyphs" textLength="125" x="329" y="219.8823">setId(id: Integer): void</text><ellipse cx="320" cy="229.4766" fill="#84BE84" rx="3" ry="3" style="stroke: #038048; stroke-width: 1.0;"/><text fill="#000000" font-family="sans-serif" font-size="11" lengthAdjust="spacingAndGlyphs" textLength="98" x="329" y="232.687">getLogin(): String</text><ellipse cx="320" cy="242.2813" fill="#84BE84" rx="3" ry="3" style="stroke: #038048; stroke-width: 1.0;"/><text fill="#000000" font-family="sans-serif" font-size="11" lengthAdjust="spacingAndGlyphs" textLength="156" x="329" y="245.4917">setLogin(login: String): void</text><ellipse cx="320" cy="255.0859" fill="#84BE84" rx="3" ry="3" style="stroke: #038048; stroke-width: 1.0;"/><text fill="#000000" font-family="sans-serif" font-size="11" lengthAdjust="spacingAndGlyphs" textLength="104" x="329" y="258.2964">getSenha(): String</text><ellipse cx="320" cy="267.8906" fill="#84BE84" rx="3" ry="3" style="stroke: #038048; stroke-width: 1.0;"/><text fill="#000000" font-family="sans-serif" font-size="11" lengthAdjust="spacingAndGlyphs" textLength="170" x="329" y="271.1011">setSenha(senha: String): void</text><!--MD5=[163a8daa56ad8e0ae99ee805301d680d]
class Laboratorio--><rect fill="#FEFECE" filter="url(#frcolb73u31ww)" height="176.0469" id="Laboratorio" style="stroke: #A80036; stroke-width: 1.5;" width="236" x="38" y="107.9531"/><ellipse cx="115.75" cy="123.9531" fill="#ADD1B2" rx="11" ry="11" style="stroke: #A80036; stroke-width: 1.0;"/><path d="M118.0938,119.625 L118.2656,119.7031 C118.4844,119.3906 118.6875,119.2969 118.9844,119.2969 C119.2813,119.2969 119.5625,119.4375 119.7188,119.7031 C119.8125,119.8594 119.8281,119.9844 119.8281,120.4219 L119.8281,121.8438 C119.8281,122.2656 119.7969,122.4531 119.6875,122.6094 C119.5156,122.8281 119.25,122.9688 118.9844,122.9688 C118.7656,122.9688 118.5313,122.8594 118.3906,122.7188 C118.25,122.5938 118.2188,122.4688 118.1563,122.0625 C118.0625,121.6563 117.8906,121.4375 117.4063,121.1563 C116.9375,120.9063 116.3281,120.75 115.75,120.75 C114.0156,120.75 112.7656,122.0625 112.7656,123.8438 L112.7656,124.9375 C112.7656,126.6406 114.0625,127.7344 116.1094,127.7344 C116.875,127.7344 117.5625,127.6094 117.9844,127.3438 C118.1719,127.25 118.1719,127.25 118.625,126.7656 C118.8125,126.5781 119.0156,126.5 119.2344,126.5 C119.7031,126.5 120.0938,126.8906 120.0938,127.3438 C120.0938,127.7344 119.7656,128.1875 119.1875,128.5938 C118.4375,129.1406 117.2813,129.4375 116.0625,129.4375 C113.1719,129.4375 111.0625,127.5469 111.0625,124.9688 L111.0625,123.8438 C111.0625,121.125 113.0625,119.0469 115.6875,119.0469 C116.5625,119.0469 117.1563,119.1875 118.0938,119.625 Z "/><text fill="#000000" font-family="sans-serif" font-size="12" lengthAdjust="spacingAndGlyphs" textLength="72" x="136.25" y="128.1074">Laboratorio</text><line style="stroke: #A80036; stroke-width: 1.5;" x1="39" x2="273" y1="139.9531" y2="139.9531"/><rect fill="none" height="6" style="stroke: #C82930; stroke-width: 1.0;" width="6" x="46" y="147.9531"/><text fill="#000000" font-family="sans-serif" font-size="11" lengthAdjust="spacingAndGlyphs" textLength="58" x="58" y="154.1636">id: Integer</text><rect fill="none" height="6" style="stroke: #C82930; stroke-width: 1.0;" width="6" x="46" y="160.7578"/><text fill="#000000" font-family="sans-serif" font-size="11" lengthAdjust="spacingAndGlyphs" textLength="74" x="58" y="166.9683">nome: String</text><rect fill="none" height="6" style="stroke: #C82930; stroke-width: 1.0;" width="6" x="46" y="173.5625"/><text fill="#000000" font-family="sans-serif" font-size="11" lengthAdjust="spacingAndGlyphs" textLength="97" x="58" y="179.7729">descricao: String</text><rect fill="none" height="6" style="stroke: #C82930; stroke-width: 1.0;" width="6" x="46" y="186.3672"/><text fill="#000000" font-family="sans-serif" font-size="11" lengthAdjust="spacingAndGlyphs" textLength="69" x="58" y="192.5776">bloco: Bloco</text><line style="stroke: #A80036; stroke-width: 1.5;" x1="39" x2="273" y1="199.1719" y2="199.1719"/><ellipse cx="49" cy="210.1719" fill="#84BE84" rx="3" ry="3" style="stroke: #038048; stroke-width: 1.0;"/><text fill="#000000" font-family="sans-serif" font-size="11" lengthAdjust="spacingAndGlyphs" textLength="84" x="58" y="213.3823">getId(): Integer</text><ellipse cx="49" cy="222.9766" fill="#84BE84" rx="3" ry="3" style="stroke: #038048; stroke-width: 1.0;"/><text fill="#000000" font-family="sans-serif" font-size="11" lengthAdjust="spacingAndGlyphs" textLength="125" x="58" y="226.187">setId(id: Integer): void</text><ellipse cx="49" cy="235.7813" fill="#84BE84" rx="3" ry="3" style="stroke: #038048; stroke-width: 1.0;"/><text fill="#000000" font-family="sans-serif" font-size="11" lengthAdjust="spacingAndGlyphs" textLength="101" x="58" y="238.9917">getNome(): String</text><ellipse cx="49" cy="248.5859" fill="#84BE84" rx="3" ry="3" style="stroke: #038048; stroke-width: 1.0;"/><text fill="#000000" font-family="sans-serif" font-size="11" lengthAdjust="spacingAndGlyphs" textLength="164" x="58" y="251.7964">setNome(nome: String): void</text><ellipse cx="49" cy="261.3906" fill="#84BE84" rx="3" ry="3" style="stroke: #038048; stroke-width: 1.0;"/><text fill="#000000" font-family="sans-serif" font-size="11" lengthAdjust="spacingAndGlyphs" textLength="124" x="58" y="264.6011">getDescricao(): String</text><ellipse cx="49" cy="274.1953" fill="#84BE84" rx="3" ry="3" style="stroke: #038048; stroke-width: 1.0;"/><text fill="#000000" font-family="sans-serif" font-size="11" lengthAdjust="spacingAndGlyphs" textLength="210" x="58" y="277.4058">setDescricao(descricao: String): void</text><!--MD5=[de7db6182f72410f7fc1e3e1c71e19e6]
class Bloco--><rect fill="#FEFECE" filter="url(#frcolb73u31ww)" height="124.8281" id="Bloco" style="stroke: #A80036; stroke-width: 1.5;" width="190" x="61" y="401.4531"/><ellipse cx="134.75" cy="417.4531" fill="#ADD1B2" rx="11" ry="11" style="stroke: #A80036; stroke-width: 1.0;"/><path d="M137.0938,413.125 L137.2656,413.2031 C137.4844,412.8906 137.6875,412.7969 137.9844,412.7969 C138.2813,412.7969 138.5625,412.9375 138.7188,413.2031 C138.8125,413.3594 138.8281,413.4844 138.8281,413.9219 L138.8281,415.3438 C138.8281,415.7656 138.7969,415.9531 138.6875,416.1094 C138.5156,416.3281 138.25,416.4688 137.9844,416.4688 C137.7656,416.4688 137.5313,416.3594 137.3906,416.2188 C137.25,416.0938 137.2188,415.9688 137.1563,415.5625 C137.0625,415.1563 136.8906,414.9375 136.4063,414.6563 C135.9375,414.4063 135.3281,414.25 134.75,414.25 C133.0156,414.25 131.7656,415.5625 131.7656,417.3438 L131.7656,418.4375 C131.7656,420.1406 133.0625,421.2344 135.1094,421.2344 C135.875,421.2344 136.5625,421.1094 136.9844,420.8438 C137.1719,420.75 137.1719,420.75 137.625,420.2656 C137.8125,420.0781 138.0156,420 138.2344,420 C138.7031,420 139.0938,420.3906 139.0938,420.8438 C139.0938,421.2344 138.7656,421.6875 138.1875,422.0938 C137.4375,422.6406 136.2813,422.9375 135.0625,422.9375 C132.1719,422.9375 130.0625,421.0469 130.0625,418.4688 L130.0625,417.3438 C130.0625,414.625 132.0625,412.5469 134.6875,412.5469 C135.5625,412.5469 136.1563,412.6875 137.0938,413.125 Z "/><text fill="#000000" font-family="sans-serif" font-size="12" lengthAdjust="spacingAndGlyphs" textLength="34" x="155.25" y="421.6074">Bloco</text><line style="stroke: #A80036; stroke-width: 1.5;" x1="62" x2="250" y1="433.4531" y2="433.4531"/><rect fill="none" height="6" style="stroke: #C82930; stroke-width: 1.0;" width="6" x="69" y="441.4531"/><text fill="#000000" font-family="sans-serif" font-size="11" lengthAdjust="spacingAndGlyphs" textLength="58" x="81" y="447.6636">id: Integer</text><rect fill="none" height="6" style="stroke: #C82930; stroke-width: 1.0;" width="6" x="69" y="454.2578"/><text fill="#000000" font-family="sans-serif" font-size="11" lengthAdjust="spacingAndGlyphs" textLength="74" x="81" y="460.4683">nome: String</text><line style="stroke: #A80036; stroke-width: 1.5;" x1="62" x2="250" y1="467.0625" y2="467.0625"/><ellipse cx="72" cy="478.0625" fill="#84BE84" rx="3" ry="3" style="stroke: #038048; stroke-width: 1.0;"/><text fill="#000000" font-family="sans-serif" font-size="11" lengthAdjust="spacingAndGlyphs" textLength="84" x="81" y="481.2729">getId(): Integer</text><ellipse cx="72" cy="490.8672" fill="#84BE84" rx="3" ry="3" style="stroke: #038048; stroke-width: 1.0;"/><text fill="#000000" font-family="sans-serif" font-size="11" lengthAdjust="spacingAndGlyphs" textLength="125" x="81" y="494.0776">setId(id: Integer): void</text><ellipse cx="72" cy="503.6719" fill="#84BE84" rx="3" ry="3" style="stroke: #038048; stroke-width: 1.0;"/><text fill="#000000" font-family="sans-serif" font-size="11" lengthAdjust="spacingAndGlyphs" textLength="101" x="81" y="506.8823">getNome(): String</text><ellipse cx="72" cy="516.4766" fill="#84BE84" rx="3" ry="3" style="stroke: #038048; stroke-width: 1.0;"/><text fill="#000000" font-family="sans-serif" font-size="11" lengthAdjust="spacingAndGlyphs" textLength="164" x="81" y="519.687">setNome(nome: String): void</text><!--MD5=[108123fe28af27e3ad7e7cab1970ff91]
class Repositorio--><rect fill="#FEFECE" filter="url(#frcolb73u31ww)" height="201.6563" id="Repositorio" style="stroke: #A80036; stroke-width: 1.5;" width="246" x="561" y="94.9531"/><ellipse cx="644.25" cy="110.9531" fill="#ADD1B2" rx="11" ry="11" style="stroke: #A80036; stroke-width: 1.0;"/><path d="M646.5938,106.625 L646.7656,106.7031 C646.9844,106.3906 647.1875,106.2969 647.4844,106.2969 C647.7813,106.2969 648.0625,106.4375 648.2188,106.7031 C648.3125,106.8594 648.3281,106.9844 648.3281,107.4219 L648.3281,108.8438 C648.3281,109.2656 648.2969,109.4531 648.1875,109.6094 C648.0156,109.8281 647.75,109.9688 647.4844,109.9688 C647.2656,109.9688 647.0313,109.8594 646.8906,109.7188 C646.75,109.5938 646.7188,109.4688 646.6563,109.0625 C646.5625,108.6563 646.3906,108.4375 645.9063,108.1563 C645.4375,107.9063 644.8281,107.75 644.25,107.75 C642.5156,107.75 641.2656,109.0625 641.2656,110.8438 L641.2656,111.9375 C641.2656,113.6406 642.5625,114.7344 644.6094,114.7344 C645.375,114.7344 646.0625,114.6094 646.4844,114.3438 C646.6719,114.25 646.6719,114.25 647.125,113.7656 C647.3125,113.5781 647.5156,113.5 647.7344,113.5 C648.2031,113.5 648.5938,113.8906 648.5938,114.3438 C648.5938,114.7344 648.2656,115.1875 647.6875,115.5938 C646.9375,116.1406 645.7813,116.4375 644.5625,116.4375 C641.6719,116.4375 639.5625,114.5469 639.5625,111.9688 L639.5625,110.8438 C639.5625,108.125 641.5625,106.0469 644.1875,106.0469 C645.0625,106.0469 645.6563,106.1875 646.5938,106.625 Z "/><text fill="#000000" font-family="sans-serif" font-size="12" lengthAdjust="spacingAndGlyphs" textLength="71" x="664.75" y="115.1074">Repositorio</text><line style="stroke: #A80036; stroke-width: 1.5;" x1="562" x2="806" y1="126.9531" y2="126.9531"/><rect fill="none" height="6" style="stroke: #C82930; stroke-width: 1.0;" width="6" x="569" y="134.9531"/><text fill="#000000" font-family="sans-serif" font-size="11" lengthAdjust="spacingAndGlyphs" textLength="180" x="581" y="141.1636">laboratorios: List&lt;Laboratorio&gt;</text><rect fill="none" height="6" style="stroke: #C82930; stroke-width: 1.0;" width="6" x="569" y="147.7578"/><text fill="#000000" font-family="sans-serif" font-size="11" lengthAdjust="spacingAndGlyphs" textLength="140" x="581" y="153.9683">usuarios: List&lt;Usuario&gt;</text><rect fill="none" height="6" style="stroke: #C82930; stroke-width: 1.0;" width="6" x="569" y="160.5625"/><text fill="#000000" font-family="sans-serif" font-size="11" lengthAdjust="spacingAndGlyphs" textLength="143" x="581" y="166.7729">reservas: List&lt;Reserva&gt;</text><line style="stroke: #A80036; stroke-width: 1.5;" x1="562" x2="806" y1="173.3672" y2="173.3672"/><ellipse cx="572" cy="184.3672" fill="#84BE84" rx="3" ry="3" style="stroke: #038048; stroke-width: 1.0;"/><text fill="#000000" font-family="sans-serif" font-size="11" lengthAdjust="spacingAndGlyphs" textLength="209" x="581" y="187.5776">getLaboratorios(): List&lt;Laboratorio&gt;</text><ellipse cx="572" cy="197.1719" fill="#84BE84" rx="3" ry="3" style="stroke: #038048; stroke-width: 1.0;"/><text fill="#000000" font-family="sans-serif" font-size="11" lengthAdjust="spacingAndGlyphs" textLength="167" x="581" y="200.3823">getUsuarios(): List&lt;Usuario&gt;</text><ellipse cx="572" cy="209.9766" fill="#84BE84" rx="3" ry="3" style="stroke: #038048; stroke-width: 1.0;"/><text fill="#000000" font-family="sans-serif" font-size="11" lengthAdjust="spacingAndGlyphs" textLength="171" x="581" y="213.187">getReservas(): List&lt;Reserva&gt;</text><ellipse cx="572" cy="222.7813" fill="#84BE84" rx="3" ry="3" style="stroke: #038048; stroke-width: 1.0;"/><text fill="#000000" font-family="sans-serif" font-size="11" lengthAdjust="spacingAndGlyphs" textLength="215" x="581" y="225.9917">inserirUsuario(usuario: Usuario): void</text><ellipse cx="572" cy="235.5859" fill="#84BE84" rx="3" ry="3" style="stroke: #038048; stroke-width: 1.0;"/><text fill="#000000" font-family="sans-serif" font-size="11" lengthAdjust="spacingAndGlyphs" textLength="189" x="581" y="238.7964">removerUsuario(id: Integer): void</text><ellipse cx="572" cy="248.3906" fill="#84BE84" rx="3" ry="3" style="stroke: #038048; stroke-width: 1.0;"/><text fill="#000000" font-family="sans-serif" font-size="11" lengthAdjust="spacingAndGlyphs" textLength="216" x="581" y="251.6011">alterarUsuario(usuario: Usuario): void</text><ellipse cx="572" cy="261.1953" fill="#84BE84" rx="3" ry="3" style="stroke: #038048; stroke-width: 1.0;"/><text fill="#000000" font-family="sans-serif" font-size="11" lengthAdjust="spacingAndGlyphs" textLength="192" x="581" y="264.4058">obterUsuario(id: Integer): Usuario</text><ellipse cx="572" cy="274" fill="#84BE84" rx="3" ry="3" style="stroke: #038048; stroke-width: 1.0;"/><text fill="#000000" font-family="sans-serif" font-size="11" lengthAdjust="spacingAndGlyphs" textLength="220" x="581" y="277.2104">inserirReserva(reserva: Reserva): void</text><ellipse cx="572" cy="286.8047" fill="#84BE84" rx="3" ry="3" style="stroke: #038048; stroke-width: 1.0;"/><text fill="#000000" font-family="sans-serif" font-size="11" lengthAdjust="spacingAndGlyphs" textLength="191" x="581" y="290.0151">removerReserva(id: Integer): void</text><!--MD5=[369c1f7a11d2044bbdc23e37698bc5ca]
link Laboratorio to Bloco--><path d="M156,284.0511 C156,317.7431 156,355.9141 156,388.3191 " fill="none" id="Laboratorio-&gt;Bloco" style="stroke: #A80036; stroke-width: 1.0;"/><polygon fill="#A80036" points="156,401.3581,160,395.3581,156,389.3581,152,395.3581,156,401.3581" style="stroke: #A80036; stroke-width: 1.0;"/><text fill="#000000" font-family="sans-serif" font-size="13" lengthAdjust="spacingAndGlyphs" textLength="80" x="157" y="342.02">Composition</text><text fill="#000000" font-family="sans-serif" font-size="13" lengthAdjust="spacingAndGlyphs" textLength="7" x="148.7102" y="304.0383">*</text><text fill="#000000" font-family="sans-serif" font-size="13" lengthAdjust="spacingAndGlyphs" textLength="8" x="147.5375" y="390.3379">1</text><!--MD5=[022b93f70532f0353cba8362a0bf45cc]
link Laboratorio to Reserva--><path d="M231.311,284.0511 C253.848,310.1161 278.703,338.8611 301.774,365.5441 " fill="none" id="Laboratorio-&gt;Reserva" style="stroke: #A80036; stroke-width: 1.0;"/><polygon fill="#A80036" points="310.52,375.6591,309.6211,368.5043,302.6708,366.5822,303.5698,373.7371,310.52,375.6591" style="stroke: #A80036; stroke-width: 1.0;"/><text fill="#000000" font-family="sans-serif" font-size="13" lengthAdjust="spacingAndGlyphs" textLength="80" x="286" y="342.02">Composition</text><text fill="#000000" font-family="sans-serif" font-size="13" lengthAdjust="spacingAndGlyphs" textLength="7" x="230.2578" y="304.0383">*</text><text fill="#000000" font-family="sans-serif" font-size="13" lengthAdjust="spacingAndGlyphs" textLength="8" x="295.9381" y="364.7966">1</text><!--MD5=[84627f1a52dfab515852533914759f64]
link Usuario to Reserva--><path d="M400.642,277.4841 C398.527,304.2811 396.144,334.4621 393.925,362.5721 " fill="none" id="Usuario-&gt;Reserva" style="stroke: #A80036; stroke-width: 1.0;"/><polygon fill="#A80036" points="392.884,375.7501,397.3437,370.0834,393.8282,363.7873,389.3685,369.454,392.884,375.7501" style="stroke: #A80036; stroke-width: 1.0;"/><text fill="#000000" font-family="sans-serif" font-size="13" lengthAdjust="spacingAndGlyphs" textLength="80" x="397" y="342.02">Composition</text><text fill="#000000" font-family="sans-serif" font-size="13" lengthAdjust="spacingAndGlyphs" textLength="7" x="392.7332" y="297.7535">*</text><text fill="#000000" font-family="sans-serif" font-size="13" lengthAdjust="spacingAndGlyphs" textLength="8" x="385.1228" y="364.8952">1</text><!--MD5=[e5c5d8b3a6fd1dea340e33ad6cddac29]
@startuml
title Laboratorios - Diagrama de Classes

package br.ucsal.lamis.model <<Model>> {
 class Reserva {
	- id: Integer
	- objetivo: String 
	- descricao: String 
	- data: LocalDate
	- horaInicio: LocalTime 
	- horaFim: LocalTIme
	- laboratorio: Laboratorio
	- usuario: Usuario
	
	+getId(): Integer 
	+setId(id: Integer): void



 }

 class Usuario {
	
	- id: Integer
	- login: String 
	- senha: String 
	
	+getId(): Integer 
	+setId(id: Integer): void
	+getLogin(): String
	+setLogin(login: String): void
	+getSenha(): String
	+setSenha(senha: String): void
 }

 class Laboratorio {
	
	-id: Integer
	-nome: String
	-descricao: String
	-bloco: Bloco

	+getId(): Integer 
	+setId(id: Integer): void
	+getNome(): String
	+setNome(nome: String): void
	+getDescricao(): String
	+setDescricao(descricao: String): void
	
	

 }

 class Bloco {
	-id: Integer
	-nome: String
	
	+getId(): Integer 
	+setId(id: Integer): void
	+getNome(): String
	+setNome(nome: String): void
 }
}

package Database <<Database>> {
  class Repositorio {
	
	-laboratorios: List<Laboratorio>
	-usuarios: List<Usuario>
	-reservas: List<Reserva>


	
	+getLaboratorios(): List<Laboratorio>
	+getUsuarios(): List<Usuario> 
	+getReservas(): List<Reserva> 


	+inserirUsuario(usuario: Usuario): void
	+removerUsuario(id: Integer): void
	+alterarUsuario(usuario: Usuario): void
	+obterUsuario(id: Integer): Usuario
	+inserirReserva(reserva: Reserva): void
	+removerReserva(id: Integer): void

  }
}

Bloco "1" *-up- "*" Laboratorio: Composition
Reserva "1" *-up- "*" Laboratorio: Composition
Reserva "1" *-up- "*" Usuario: Composition
@enduml

PlantUML version 1.2019.11(Sun Sep 22 10:02:15 UTC 2019)
(GPL source distribution)
Java Runtime: Java(TM) SE Runtime Environment
JVM: Java HotSpot(TM) 64-Bit Server VM
Java Version: 1.7.0_25-b15
Operating System: Linux
Default Encoding: UTF-8
Language: en
Country: US
--></g></svg>