<?xml version="1.0" encoding="UTF-8" standalone="no"?><svg xmlns="http://www.w3.org/2000/svg" xmlns:xlink="http://www.w3.org/1999/xlink" contentScriptType="application/ecmascript" contentStyleType="text/css" height="501px" preserveAspectRatio="none" style="width:831px;height:501px;" version="1.1" viewBox="0 0 831 501" width="831px" zoomAndPan="magnify"><defs><filter height="300%" id="f1ez8txv3xvsky" width="300%" x="-1" y="-1"><feGaussianBlur result="blurOut" stdDeviation="2.0"/><feColorMatrix in="blurOut" result="blurOut2" type="matrix" values="0 0 0 0 0 0 0 0 0 0 0 0 0 0 0 0 0 0 .4 0"/><feOffset dx="4.0" dy="4.0" in="blurOut2" result="blurOut3"/><feBlend in="SourceGraphic" in2="blurOut3" mode="normal"/></filter></defs><g><text fill="#000000" font-family="sans-serif" font-size="18" lengthAdjust="spacingAndGlyphs" textLength="311" x="271" y="16.708">Laboratorios - Diagrama de Classes</text><!--MD5=[3921fea2615a66fe84ca46b00080c1f8]
cluster br.ucsal.lamis.model--><polygon fill="#FFFFFF" filter="url(#f1ez8txv3xvsky)" points="22,44.9531,189,44.9531,196,67.25,521,67.25,521,489.9531,22,489.9531,22,44.9531" style="stroke: #000000; stroke-width: 1.5;"/><line style="stroke: #000000; stroke-width: 1.5;" x1="22" x2="196" y1="67.25" y2="67.25"/><text fill="#000000" font-family="sans-serif" font-size="14" font-weight="bold" lengthAdjust="spacingAndGlyphs" textLength="161" x="26" y="59.9482">br.ucsal.lamis.model</text><text fill="#000000" font-family="sans-serif" font-size="14" font-style="italic" lengthAdjust="spacingAndGlyphs" textLength="60" x="245.5" y="82.2451">«Model»</text><!--MD5=[815249f79c2c08157ac02b3106e03757]
cluster Database--><path d="M545,68.9531 C545,58.9531 682,58.9531 682,58.9531 C682,58.9531 819,58.9531 819,68.9531 L819,264.9531 C819,274.9531 682,274.9531 682,274.9531 C682,274.9531 545,274.9531 545,264.9531 L545,68.9531 " fill="#FFFFFF" filter="url(#f1ez8txv3xvsky)" style="stroke: #000000; stroke-width: 1.5;"/><path d="M545,68.9531 C545,78.9531 682,78.9531 682,78.9531 C682,78.9531 819,78.9531 819,68.9531 " fill="none" style="stroke: #000000; stroke-width: 1.5;"/><text fill="#000000" font-family="sans-serif" font-size="14" font-weight="bold" lengthAdjust="spacingAndGlyphs" textLength="73" x="645.5" y="93.9482">Database</text><!--MD5=[35a64b983c79880384a2fd9b61f0c24b]
class Usuario--><rect fill="#FEFECE" filter="url(#f1ez8txv3xvsky)" height="163.2422" id="Usuario" style="stroke: #A80036; stroke-width: 1.5;" width="196" x="38" y="102.4531"/><ellipse cx="107.75" cy="118.4531" fill="#ADD1B2" rx="11" ry="11" style="stroke: #A80036; stroke-width: 1.0;"/><path d="M110.0938,114.125 L110.2656,114.2031 C110.4844,113.8906 110.6875,113.7969 110.9844,113.7969 C111.2813,113.7969 111.5625,113.9375 111.7188,114.2031 C111.8125,114.3594 111.8281,114.4844 111.8281,114.9219 L111.8281,116.3438 C111.8281,116.7656 111.7969,116.9531 111.6875,117.1094 C111.5156,117.3281 111.25,117.4688 110.9844,117.4688 C110.7656,117.4688 110.5313,117.3594 110.3906,117.2188 C110.25,117.0938 110.2188,116.9688 110.1563,116.5625 C110.0625,116.1563 109.8906,115.9375 109.4063,115.6563 C108.9375,115.4063 108.3281,115.25 107.75,115.25 C106.0156,115.25 104.7656,116.5625 104.7656,118.3438 L104.7656,119.4375 C104.7656,121.1406 106.0625,122.2344 108.1094,122.2344 C108.875,122.2344 109.5625,122.1094 109.9844,121.8438 C110.1719,121.75 110.1719,121.75 110.625,121.2656 C110.8125,121.0781 111.0156,121 111.2344,121 C111.7031,121 112.0938,121.3906 112.0938,121.8438 C112.0938,122.2344 111.7656,122.6875 111.1875,123.0938 C110.4375,123.6406 109.2813,123.9375 108.0625,123.9375 C105.1719,123.9375 103.0625,122.0469 103.0625,119.4688 L103.0625,118.3438 C103.0625,115.625 105.0625,113.5469 107.6875,113.5469 C108.5625,113.5469 109.1563,113.6875 110.0938,114.125 Z "/><text fill="#000000" font-family="sans-serif" font-size="12" lengthAdjust="spacingAndGlyphs" textLength="48" x="128.25" y="122.6074">Usuario</text><line style="stroke: #A80036; stroke-width: 1.5;" x1="39" x2="233" y1="134.4531" y2="134.4531"/><rect fill="none" height="6" style="stroke: #C82930; stroke-width: 1.0;" width="6" x="46" y="142.4531"/><text fill="#000000" font-family="sans-serif" font-size="11" lengthAdjust="spacingAndGlyphs" textLength="58" x="58" y="148.6636">id: Integer</text><rect fill="none" height="6" style="stroke: #C82930; stroke-width: 1.0;" width="6" x="46" y="155.2578"/><text fill="#000000" font-family="sans-serif" font-size="11" lengthAdjust="spacingAndGlyphs" textLength="69" x="58" y="161.4683">login: String</text><rect fill="none" height="6" style="stroke: #C82930; stroke-width: 1.0;" width="6" x="46" y="168.0625"/><text fill="#000000" font-family="sans-serif" font-size="11" lengthAdjust="spacingAndGlyphs" textLength="77" x="58" y="174.2729">senha: String</text><line style="stroke: #A80036; stroke-width: 1.5;" x1="39" x2="233" y1="180.8672" y2="180.8672"/><ellipse cx="49" cy="191.8672" fill="#84BE84" rx="3" ry="3" style="stroke: #038048; stroke-width: 1.0;"/><text fill="#000000" font-family="sans-serif" font-size="11" lengthAdjust="spacingAndGlyphs" textLength="84" x="58" y="195.0776">getId(): Integer</text><ellipse cx="49" cy="204.6719" fill="#84BE84" rx="3" ry="3" style="stroke: #038048; stroke-width: 1.0;"/><text fill="#000000" font-family="sans-serif" font-size="11" lengthAdjust="spacingAndGlyphs" textLength="125" x="58" y="207.8823">setId(id: Integer): void</text><ellipse cx="49" cy="217.4766" fill="#84BE84" rx="3" ry="3" style="stroke: #038048; stroke-width: 1.0;"/><text fill="#000000" font-family="sans-serif" font-size="11" lengthAdjust="spacingAndGlyphs" textLength="98" x="58" y="220.687">getLogin(): String</text><ellipse cx="49" cy="230.2813" fill="#84BE84" rx="3" ry="3" style="stroke: #038048; stroke-width: 1.0;"/><text fill="#000000" font-family="sans-serif" font-size="11" lengthAdjust="spacingAndGlyphs" textLength="156" x="58" y="233.4917">setLogin(login: String): void</text><ellipse cx="49" cy="243.0859" fill="#84BE84" rx="3" ry="3" style="stroke: #038048; stroke-width: 1.0;"/><text fill="#000000" font-family="sans-serif" font-size="11" lengthAdjust="spacingAndGlyphs" textLength="104" x="58" y="246.2964">getSenha(): String</text><ellipse cx="49" cy="255.8906" fill="#84BE84" rx="3" ry="3" style="stroke: #038048; stroke-width: 1.0;"/><text fill="#000000" font-family="sans-serif" font-size="11" lengthAdjust="spacingAndGlyphs" textLength="170" x="58" y="259.1011">setSenha(senha: String): void</text><!--MD5=[163a8daa56ad8e0ae99ee805301d680d]
class Laboratorio--><rect fill="#FEFECE" filter="url(#f1ez8txv3xvsky)" height="176.0469" id="Laboratorio" style="stroke: #A80036; stroke-width: 1.5;" width="236" x="269" y="95.9531"/><ellipse cx="346.75" cy="111.9531" fill="#ADD1B2" rx="11" ry="11" style="stroke: #A80036; stroke-width: 1.0;"/><path d="M349.0938,107.625 L349.2656,107.7031 C349.4844,107.3906 349.6875,107.2969 349.9844,107.2969 C350.2813,107.2969 350.5625,107.4375 350.7188,107.7031 C350.8125,107.8594 350.8281,107.9844 350.8281,108.4219 L350.8281,109.8438 C350.8281,110.2656 350.7969,110.4531 350.6875,110.6094 C350.5156,110.8281 350.25,110.9688 349.9844,110.9688 C349.7656,110.9688 349.5313,110.8594 349.3906,110.7188 C349.25,110.5938 349.2188,110.4688 349.1563,110.0625 C349.0625,109.6563 348.8906,109.4375 348.4063,109.1563 C347.9375,108.9063 347.3281,108.75 346.75,108.75 C345.0156,108.75 343.7656,110.0625 343.7656,111.8438 L343.7656,112.9375 C343.7656,114.6406 345.0625,115.7344 347.1094,115.7344 C347.875,115.7344 348.5625,115.6094 348.9844,115.3438 C349.1719,115.25 349.1719,115.25 349.625,114.7656 C349.8125,114.5781 350.0156,114.5 350.2344,114.5 C350.7031,114.5 351.0938,114.8906 351.0938,115.3438 C351.0938,115.7344 350.7656,116.1875 350.1875,116.5938 C349.4375,117.1406 348.2813,117.4375 347.0625,117.4375 C344.1719,117.4375 342.0625,115.5469 342.0625,112.9688 L342.0625,111.8438 C342.0625,109.125 344.0625,107.0469 346.6875,107.0469 C347.5625,107.0469 348.1563,107.1875 349.0938,107.625 Z "/><text fill="#000000" font-family="sans-serif" font-size="12" lengthAdjust="spacingAndGlyphs" textLength="72" x="367.25" y="116.1074">Laboratorio</text><line style="stroke: #A80036; stroke-width: 1.5;" x1="270" x2="504" y1="127.9531" y2="127.9531"/><rect fill="none" height="6" style="stroke: #C82930; stroke-width: 1.0;" width="6" x="277" y="135.9531"/><text fill="#000000" font-family="sans-serif" font-size="11" lengthAdjust="spacingAndGlyphs" textLength="58" x="289" y="142.1636">id: Integer</text><rect fill="none" height="6" style="stroke: #C82930; stroke-width: 1.0;" width="6" x="277" y="148.7578"/><text fill="#000000" font-family="sans-serif" font-size="11" lengthAdjust="spacingAndGlyphs" textLength="74" x="289" y="154.9683">nome: String</text><rect fill="none" height="6" style="stroke: #C82930; stroke-width: 1.0;" width="6" x="277" y="161.5625"/><text fill="#000000" font-family="sans-serif" font-size="11" lengthAdjust="spacingAndGlyphs" textLength="97" x="289" y="167.7729">descricao: String</text><rect fill="none" height="6" style="stroke: #C82930; stroke-width: 1.0;" width="6" x="277" y="174.3672"/><text fill="#000000" font-family="sans-serif" font-size="11" lengthAdjust="spacingAndGlyphs" textLength="69" x="289" y="180.5776">bloco: Bloco</text><line style="stroke: #A80036; stroke-width: 1.5;" x1="270" x2="504" y1="187.1719" y2="187.1719"/><ellipse cx="280" cy="198.1719" fill="#84BE84" rx="3" ry="3" style="stroke: #038048; stroke-width: 1.0;"/><text fill="#000000" font-family="sans-serif" font-size="11" lengthAdjust="spacingAndGlyphs" textLength="84" x="289" y="201.3823">getId(): Integer</text><ellipse cx="280" cy="210.9766" fill="#84BE84" rx="3" ry="3" style="stroke: #038048; stroke-width: 1.0;"/><text fill="#000000" font-family="sans-serif" font-size="11" lengthAdjust="spacingAndGlyphs" textLength="125" x="289" y="214.187">setId(id: Integer): void</text><ellipse cx="280" cy="223.7813" fill="#84BE84" rx="3" ry="3" style="stroke: #038048; stroke-width: 1.0;"/><text fill="#000000" font-family="sans-serif" font-size="11" lengthAdjust="spacingAndGlyphs" textLength="101" x="289" y="226.9917">getNome(): String</text><ellipse cx="280" cy="236.5859" fill="#84BE84" rx="3" ry="3" style="stroke: #038048; stroke-width: 1.0;"/><text fill="#000000" font-family="sans-serif" font-size="11" lengthAdjust="spacingAndGlyphs" textLength="164" x="289" y="239.7964">setNome(nome: String): void</text><ellipse cx="280" cy="249.3906" fill="#84BE84" rx="3" ry="3" style="stroke: #038048; stroke-width: 1.0;"/><text fill="#000000" font-family="sans-serif" font-size="11" lengthAdjust="spacingAndGlyphs" textLength="124" x="289" y="252.6011">getDescricao(): String</text><ellipse cx="280" cy="262.1953" fill="#84BE84" rx="3" ry="3" style="stroke: #038048; stroke-width: 1.0;"/><text fill="#000000" font-family="sans-serif" font-size="11" lengthAdjust="spacingAndGlyphs" textLength="210" x="289" y="265.4058">setDescricao(descricao: String): void</text><!--MD5=[de7db6182f72410f7fc1e3e1c71e19e6]
class Bloco--><rect fill="#FEFECE" filter="url(#f1ez8txv3xvsky)" height="124.8281" id="Bloco" style="stroke: #A80036; stroke-width: 1.5;" width="190" x="292" y="348.9531"/><ellipse cx="365.75" cy="364.9531" fill="#ADD1B2" rx="11" ry="11" style="stroke: #A80036; stroke-width: 1.0;"/><path d="M368.0938,360.625 L368.2656,360.7031 C368.4844,360.3906 368.6875,360.2969 368.9844,360.2969 C369.2813,360.2969 369.5625,360.4375 369.7188,360.7031 C369.8125,360.8594 369.8281,360.9844 369.8281,361.4219 L369.8281,362.8438 C369.8281,363.2656 369.7969,363.4531 369.6875,363.6094 C369.5156,363.8281 369.25,363.9688 368.9844,363.9688 C368.7656,363.9688 368.5313,363.8594 368.3906,363.7188 C368.25,363.5938 368.2188,363.4688 368.1563,363.0625 C368.0625,362.6563 367.8906,362.4375 367.4063,362.1563 C366.9375,361.9063 366.3281,361.75 365.75,361.75 C364.0156,361.75 362.7656,363.0625 362.7656,364.8438 L362.7656,365.9375 C362.7656,367.6406 364.0625,368.7344 366.1094,368.7344 C366.875,368.7344 367.5625,368.6094 367.9844,368.3438 C368.1719,368.25 368.1719,368.25 368.625,367.7656 C368.8125,367.5781 369.0156,367.5 369.2344,367.5 C369.7031,367.5 370.0938,367.8906 370.0938,368.3438 C370.0938,368.7344 369.7656,369.1875 369.1875,369.5938 C368.4375,370.1406 367.2813,370.4375 366.0625,370.4375 C363.1719,370.4375 361.0625,368.5469 361.0625,365.9688 L361.0625,364.8438 C361.0625,362.125 363.0625,360.0469 365.6875,360.0469 C366.5625,360.0469 367.1563,360.1875 368.0938,360.625 Z "/><text fill="#000000" font-family="sans-serif" font-size="12" lengthAdjust="spacingAndGlyphs" textLength="34" x="386.25" y="369.1074">Bloco</text><line style="stroke: #A80036; stroke-width: 1.5;" x1="293" x2="481" y1="380.9531" y2="380.9531"/><rect fill="none" height="6" style="stroke: #C82930; stroke-width: 1.0;" width="6" x="300" y="388.9531"/><text fill="#000000" font-family="sans-serif" font-size="11" lengthAdjust="spacingAndGlyphs" textLength="58" x="312" y="395.1636">id: Integer</text><rect fill="none" height="6" style="stroke: #C82930; stroke-width: 1.0;" width="6" x="300" y="401.7578"/><text fill="#000000" font-family="sans-serif" font-size="11" lengthAdjust="spacingAndGlyphs" textLength="74" x="312" y="407.9683">nome: String</text><line style="stroke: #A80036; stroke-width: 1.5;" x1="293" x2="481" y1="414.5625" y2="414.5625"/><ellipse cx="303" cy="425.5625" fill="#84BE84" rx="3" ry="3" style="stroke: #038048; stroke-width: 1.0;"/><text fill="#000000" font-family="sans-serif" font-size="11" lengthAdjust="spacingAndGlyphs" textLength="84" x="312" y="428.7729">getId(): Integer</text><ellipse cx="303" cy="438.3672" fill="#84BE84" rx="3" ry="3" style="stroke: #038048; stroke-width: 1.0;"/><text fill="#000000" font-family="sans-serif" font-size="11" lengthAdjust="spacingAndGlyphs" textLength="125" x="312" y="441.5776">setId(id: Integer): void</text><ellipse cx="303" cy="451.1719" fill="#84BE84" rx="3" ry="3" style="stroke: #038048; stroke-width: 1.0;"/><text fill="#000000" font-family="sans-serif" font-size="11" lengthAdjust="spacingAndGlyphs" textLength="101" x="312" y="454.3823">getNome(): String</text><ellipse cx="303" cy="463.9766" fill="#84BE84" rx="3" ry="3" style="stroke: #038048; stroke-width: 1.0;"/><text fill="#000000" font-family="sans-serif" font-size="11" lengthAdjust="spacingAndGlyphs" textLength="164" x="312" y="467.187">setNome(nome: String): void</text><!--MD5=[108123fe28af27e3ad7e7cab1970ff91]
class Repositorio--><rect fill="#FEFECE" filter="url(#f1ez8txv3xvsky)" height="150.4375" id="Repositorio" style="stroke: #A80036; stroke-width: 1.5;" width="242" x="561" y="108.9531"/><ellipse cx="642.25" cy="124.9531" fill="#ADD1B2" rx="11" ry="11" style="stroke: #A80036; stroke-width: 1.0;"/><path d="M644.5938,120.625 L644.7656,120.7031 C644.9844,120.3906 645.1875,120.2969 645.4844,120.2969 C645.7813,120.2969 646.0625,120.4375 646.2188,120.7031 C646.3125,120.8594 646.3281,120.9844 646.3281,121.4219 L646.3281,122.8438 C646.3281,123.2656 646.2969,123.4531 646.1875,123.6094 C646.0156,123.8281 645.75,123.9688 645.4844,123.9688 C645.2656,123.9688 645.0313,123.8594 644.8906,123.7188 C644.75,123.5938 644.7188,123.4688 644.6563,123.0625 C644.5625,122.6563 644.3906,122.4375 643.9063,122.1563 C643.4375,121.9063 642.8281,121.75 642.25,121.75 C640.5156,121.75 639.2656,123.0625 639.2656,124.8438 L639.2656,125.9375 C639.2656,127.6406 640.5625,128.7344 642.6094,128.7344 C643.375,128.7344 644.0625,128.6094 644.4844,128.3438 C644.6719,128.25 644.6719,128.25 645.125,127.7656 C645.3125,127.5781 645.5156,127.5 645.7344,127.5 C646.2031,127.5 646.5938,127.8906 646.5938,128.3438 C646.5938,128.7344 646.2656,129.1875 645.6875,129.5938 C644.9375,130.1406 643.7813,130.4375 642.5625,130.4375 C639.6719,130.4375 637.5625,128.5469 637.5625,125.9688 L637.5625,124.8438 C637.5625,122.125 639.5625,120.0469 642.1875,120.0469 C643.0625,120.0469 643.6563,120.1875 644.5938,120.625 Z "/><text fill="#000000" font-family="sans-serif" font-size="12" lengthAdjust="spacingAndGlyphs" textLength="71" x="662.75" y="129.1074">Repositorio</text><line style="stroke: #A80036; stroke-width: 1.5;" x1="562" x2="802" y1="140.9531" y2="140.9531"/><rect fill="none" height="6" style="stroke: #C82930; stroke-width: 1.0;" width="6" x="569" y="148.9531"/><text fill="#000000" font-family="sans-serif" font-size="11" lengthAdjust="spacingAndGlyphs" textLength="180" x="581" y="155.1636">laboratorios: List&lt;Laboratorio&gt;</text><rect fill="none" height="6" style="stroke: #C82930; stroke-width: 1.0;" width="6" x="569" y="161.7578"/><text fill="#000000" font-family="sans-serif" font-size="11" lengthAdjust="spacingAndGlyphs" textLength="140" x="581" y="167.9683">usuarios: List&lt;Usuario&gt;</text><line style="stroke: #A80036; stroke-width: 1.5;" x1="562" x2="802" y1="174.5625" y2="174.5625"/><ellipse cx="572" cy="185.5625" fill="#84BE84" rx="3" ry="3" style="stroke: #038048; stroke-width: 1.0;"/><text fill="#000000" font-family="sans-serif" font-size="11" lengthAdjust="spacingAndGlyphs" textLength="209" x="581" y="188.7729">getLaboratorios(): List&lt;Laboratorio&gt;</text><ellipse cx="572" cy="198.3672" fill="#84BE84" rx="3" ry="3" style="stroke: #038048; stroke-width: 1.0;"/><text fill="#000000" font-family="sans-serif" font-size="11" lengthAdjust="spacingAndGlyphs" textLength="167" x="581" y="201.5776">getUsuarios(): List&lt;Usuario&gt;</text><ellipse cx="572" cy="211.1719" fill="#84BE84" rx="3" ry="3" style="stroke: #038048; stroke-width: 1.0;"/><text fill="#000000" font-family="sans-serif" font-size="11" lengthAdjust="spacingAndGlyphs" textLength="215" x="581" y="214.3823">inserirUsuario(usuario: Usuario): void</text><ellipse cx="572" cy="223.9766" fill="#84BE84" rx="3" ry="3" style="stroke: #038048; stroke-width: 1.0;"/><text fill="#000000" font-family="sans-serif" font-size="11" lengthAdjust="spacingAndGlyphs" textLength="189" x="581" y="227.187">removerUsuario(id: Integer): void</text><ellipse cx="572" cy="236.7813" fill="#84BE84" rx="3" ry="3" style="stroke: #038048; stroke-width: 1.0;"/><text fill="#000000" font-family="sans-serif" font-size="11" lengthAdjust="spacingAndGlyphs" textLength="216" x="581" y="239.9917">alterarUsuario(usuario: Usuario): void</text><ellipse cx="572" cy="249.5859" fill="#84BE84" rx="3" ry="3" style="stroke: #038048; stroke-width: 1.0;"/><text fill="#000000" font-family="sans-serif" font-size="11" lengthAdjust="spacingAndGlyphs" textLength="192" x="581" y="252.7964">obterUsuario(id: Integer): Usuario</text><!--MD5=[369c1f7a11d2044bbdc23e37698bc5ca]
link Laboratorio to Bloco--><path d="M387,272.1371 C387,293.0811 387,315.2661 387,335.5931 " fill="none" id="Laboratorio-&gt;Bloco" style="stroke: #A80036; stroke-width: 1.0;"/><polygon fill="#A80036" points="387,348.6501,391,342.6501,387,336.6501,383,342.6501,387,348.6501" style="stroke: #A80036; stroke-width: 1.0;"/><text fill="#000000" font-family="sans-serif" font-size="13" lengthAdjust="spacingAndGlyphs" textLength="80" x="388" y="315.02">Composition</text><text fill="#000000" font-family="sans-serif" font-size="13" lengthAdjust="spacingAndGlyphs" textLength="7" x="379.7102" y="292.1314">*</text><text fill="#000000" font-family="sans-serif" font-size="13" lengthAdjust="spacingAndGlyphs" textLength="8" x="378.5625" y="338.0443">1</text><!--MD5=[1c37cfd29ecc5c8efab898a2b775f972]
@startuml
title Laboratorios - Diagrama de Classes

package br.ucsal.lamis.model <<Model>> {

class Usuario {
	
	- id: Integer
	- login: String 
	- senha: String 
	
	+getId(): Integer 
	+setId(id: Integer): void
	+getLogin(): String
	+setLogin(login: String): void
	+getSenha(): String
	+setSenha(senha: String): void
}

class Laboratorio {
	
	-id: Integer
	-nome: String
	-descricao: String
	-bloco: Bloco

	+getId(): Integer 
	+setId(id: Integer): void
	+getNome(): String
	+setNome(nome: String): void
	+getDescricao(): String
	+setDescricao(descricao: String): void
	
	

}

class Bloco {
	-id: Integer
	-nome: String
	
	+getId(): Integer 
	+setId(id: Integer): void
	+getNome(): String
	+setNome(nome: String): void
}
}

package Database <<Database>> {
  class Repositorio {
	
	-laboratorios: List<Laboratorio>
	-usuarios: List<Usuario>
	
	+getLaboratorios(): List<Laboratorio>
	+getUsuarios(): List<Usuario> 
	+inserirUsuario(usuario: Usuario): void
	+removerUsuario(id: Integer): void
	+alterarUsuario(usuario: Usuario): void
	+obterUsuario(id: Integer): Usuario

  }
}

Bloco "1" *-up- "*" Laboratorio: Composition
@enduml

PlantUML version 1.2019.11(Sun Sep 22 10:02:15 UTC 2019)
(GPL source distribution)
Java Runtime: Java(TM) SE Runtime Environment
JVM: Java HotSpot(TM) 64-Bit Server VM
Java Version: 1.7.0_25-b15
Operating System: Linux
Default Encoding: UTF-8
Language: en
Country: US
--></g></svg>